# xmcd
#
# Track frame offsets:
# 150
# 21616
# 39987
# 58679
# 74820
# 93389
# 112583
# 133346
# 150608
# 174306
# 189664
# 214974
# 241074
# 263089
#
# Disc length: 3862 seconds
#
#
# Revision: 0
# Processed by: cddbd v1.5.2PL0 Copyright (c) Steve Scherf et al.
# Submitted via: Nero 7, 11, 10, 0 
#
DISCID=c70f140e
DTITLE=R and B Bombers - Bad Behavior
DYEAR=2009
DGENRE=Blues
TTITLE0=Nine One One!
TTITLE1=Keep Rubbin' Me
TTITLE2=I Apologize
TTITLE3=Gooshie
TTITLE4=Bad Behavior
TTITLE5=Mr. G Man
TTITLE6=Talk Is Cheap
TTITLE7=Plenty Horny
TTITLE8=Captivity
TTITLE9=The Kid Can't Help It
TTITLE10=The Sancho Song
TTITLE11=White Boys Don't Dance
TTITLE12=Can't Keep No Good Man Down
TTITLE13=Mystery Song
EXTD=
EXTT0=Nine One One!
EXTT1=Keep Rubbin' Me
EXTT2=I Apologize
EXTT3=Gooshie
EXTT4=Bad Behavior
EXTT5=Mr. G Man
EXTT6=Talk Is Cheap
EXTT7=Plenty Horny
EXTT8=Captivity
EXTT9=The Kid Can't Help It
EXTT10=The Sancho Song
EXTT11=White Boys Don't Dance
EXTT12=Can't Keep No Good Man Down
EXTT13=Mystery Song
PLAYORDER=
